# xmcd CD database file
#
# Track frame offsets:
#	150
#	24932
#	51410
#	78087
#	91992
#	111470
#	135400
#	149507
#	185007
#	206972
#	228300
#	243247
#	258662
#	272625
#	289517
#
# Disc length: 4020 seconds
#
# Revision: 0
# Processed by: cddbd v1.5.1PL0 Copyright (c) Steve Scherf et al.
# Submitted via: CDex 1.51
#
DISCID=da0fb20f
DTITLE=Various Artist - Oude Stijl Jazz Festival Breda
DYEAR=1989
DGENRE=Jazz
TTITLE0=I Would Do Almost Anything for You - Happy Riff Machine
TTITLE1=Route 66 - Harlem Blues and Jazz Band
TTITLE2=The Man I Love - Sunset Music Company
TTITLE3=Jungle Nights in Harlem - Midnite Follies Orchestra
TTITLE4=Since My Best Gal Turned Me Down - High Sierra Jazzband
TTITLE5=Sammy Rimington - Just a Closer Walk with Thee
TTITLE6=Papa Dip - Turk Murphy Jazz Band
TTITLE7=Jazzy-Gouzi - Orpheon Celesta
TTITLE8=Someday You'll Be Sorry - Doc Cheatham
TTITLE9=Pastel Blue - Red Roseland Cornpickers
TTITLE10=Come Back Sweet Papa - Portena Jazzband
TTITLE11=Yacht Club Swing - Brooks Tegler's Hot Jazz
TTITLE12=Minor Drag - Keith Nichols
TTITLE13=Moon Country - Howard Alden and Dan Barrett
TTITLE14=Paarse Heide - Purple Moors Jazzband
EXTD=YEAR: 1989
EXTT0=
EXTT1=
EXTT2=
EXTT3=
EXTT4=
EXTT5=
EXTT6=
EXTT7=
EXTT8=
EXTT9=
EXTT10=
EXTT11=
EXTT12=
EXTT13=
EXTT14=
PLAYORDER=
